<svg xmlns="http://www.w3.org/2000/svg" version="1.1" xmlns:xlink="http://www.w3.org/1999/xlink" xmlns:svgjs="http://svgjs.dev/svgjs" width="1000" height="1200" preserveAspectRatio="none" viewBox="0 0 1000 1200"><g mask="url(&quot;#SvgjsMask3018&quot;)" fill="none"><rect width="1000" height="1200" x="0" y="0" fill="rgba(243, 243, 243, 0.61)"></rect><use xlink:href="#SvgjsG3023" transform="translate(0, 0)" fill="rgba(200, 50, 50, 0.2)"></use><use xlink:href="#SvgjsG3023" transform="translate(0, 920)" fill="rgba(200, 50, 50, 0.2)"></use><use xlink:href="#SvgjsG3023" transform="translate(920, 0)" fill="rgba(200, 50, 50, 0.2)"></use><use xlink:href="#SvgjsG3023" transform="translate(920, 920)" fill="rgba(200, 50, 50, 0.2)"></use></g><defs><mask id="SvgjsMask3018"><rect width="1000" height="1200" fill="#ffffff"></rect></mask><g id="SvgjsG3019"><path d="M18.03 7.51L5.77 17.79-1.99 8.55l12.26-10.29 7.76 9.25z m-11.53 8.21l9.36-7.85L10.14 7.3l-0.09 1.07c-0.04 0.46-0.28 0.91-0.66 1.23l-0.01 0.01c-0.38 0.32-0.87 0.47-1.34 0.43l-1.09-0.1-0.45 5.78zM0.1 9.3l5.29 6.3L5.84 9.83 0.1 9.3zM10.23 6.19l5.71 0.56L10.71 0.52l-0.48 5.67zM0.19 8.18l7.96 0.75c0.17 0.02 0.36-0.05 0.51-0.18l0.01 0c0.15-0.13 0.25-0.3 0.26-0.47L9.61 0.28 0.18 8.18z"></path></g><g id="SvgjsG3020"><path d="M14.46 4.45c0.23-0.19 0.28-0.55 0.13-0.8 0 0-0.22-0.35-0.54-0.73s-0.62-0.65-0.62-0.65c-0.22-0.2-0.58-0.2-0.81-0.01l-1.17 0.98c-0.23 0.19-0.58 0.24-0.79 0.11s-0.77-0.62-0.74-0.91l0.14-1.52c0.03-0.29-0.19-0.58-0.48-0.63l-1.79-0.16c-0.3 0-0.56 0.24-0.58 0.54l-0.14 1.52c-0.02 0.29-0.24 0.58-0.47 0.64s-0.98 0.11-1.17-0.12L4.45 1.54c-0.19-0.23-0.55-0.28-0.8-0.13 0 0-0.35 0.22-0.73 0.54s-0.65 0.62-0.65 0.62c-0.2 0.22-0.21 0.58-0.01 0.81l0.97 1.17c0.19 0.23 0.24 0.58 0.12 0.79s-0.62 0.77-0.91 0.74l-1.52-0.14C0.63 5.92 0.34 6.13 0.29 6.42l-0.16 1.79c0 0.3 0.24 0.56 0.54 0.58l1.52 0.14c0.29 0.03 0.58 0.24 0.64 0.47s0.11 0.98-0.12 1.17L1.54 11.55c-0.23 0.19-0.28 0.55-0.13 0.8 0 0 0.22 0.35 0.54 0.73s0.62 0.65 0.62 0.65c0.22 0.2 0.58 0.21 0.81 0.02l1.17-0.98c0.23-0.19 0.58-0.24 0.79-0.12 0.21 0.13 0.77 0.62 0.74 0.91l-0.14 1.52C5.92 15.37 6.14 15.66 6.43 15.71l1.78 0.15c0.3 0 0.56-0.24 0.59-0.53l0.13-1.52c0.03-0.29 0.24-0.58 0.47-0.64s0.98-0.1 1.17 0.12l0.98 1.17c0.19 0.23 0.55 0.28 0.8 0.13 0 0 0.35-0.22 0.73-0.54s0.65-0.62 0.65-0.62c0.2-0.22 0.2-0.58 0.02-0.81l-0.98-1.17c-0.19-0.23-0.24-0.58-0.12-0.79 0.13-0.21 0.62-0.77 0.91-0.74l1.52 0.14c0.29 0.03 0.58-0.19 0.63-0.49l0.16-1.78c0-0.3-0.24-0.56-0.54-0.58l-1.52-0.14c-0.29-0.03-0.58-0.24-0.64-0.47-0.06-0.23-0.11-0.98 0.12-1.17l1.17-0.98zM9.86 10.22c-1.22 1.03-3.05 0.87-4.07-0.36-1.03-1.22-0.87-3.05 0.35-4.07S9.19 4.92 10.22 6.14 11.08 9.19 9.86 10.22z"></path></g><g id="SvgjsG3021"><path d="M1.31 3.17l3.1-2.6 7.03 8.38L8.34 11.55z m8.22 9.79l3.09-2.6L14.69 12.83 11.59 15.43z"></path></g><g id="SvgjsG3022"><path d="M0.07 11l2.41-2.03 3.6 4.29L3.67 15.29z"></path><path d="M10.73 13.97L5.52 13.74l-3.55-4.22 0.63-5.24L7.34 8.55z"></path><path d="M2.6 4.28S5.32 6.14 7.34 8.55s3.39 5.41 3.39 5.42m6.68-4.37l-1.43 0.32c-0.01-0.03-0.79-3.37-3.19-6.23-2.38-2.84-5.71-4.02-5.74-4.04l0.47-1.38c0.15 0.05 3.74 1.32 6.39 4.47 2.64 3.14 3.47 6.7 3.5 6.86z"></path><path d="M14.46 9.78l-1.43 0.33c-0.01-0.02-0.58-2.46-2.33-4.55-1.74-2.08-4.16-2.93-4.18-2.94l0.48-1.38c0.12 0.04 2.82 1 4.82 3.38 1.98 2.37 2.61 5.05 2.63 5.16z"></path><path d="M11.49 9.76l-1.43 0.32c0-0.01-0.36-1.51-1.43-2.78-1.05-1.26-2.54-1.79-2.55-1.8l0.48-1.38c0.08 0.03 1.87 0.66 3.19 2.23 1.31 1.56 1.72 3.33 1.74 3.41z"></path></g><g id="SvgjsG3023"><use xlink:href="#SvgjsG3019" transform="translate(0, 0) scale(2)" fill="rgba(200, 50, 50, 0.2)"></use><use xlink:href="#SvgjsG3020" transform="translate(0, 92) scale(2)" fill="rgba(200, 50, 50, 0.2)"></use><use xlink:href="#SvgjsG3021" transform="translate(0, 184) scale(2)" fill="rgba(200, 50, 50, 0.2)"></use><use xlink:href="#SvgjsG3022" transform="translate(0, 276) scale(2)" fill="rgba(200, 50, 50, 0.2)"></use><use xlink:href="#SvgjsG3019" transform="translate(0, 368) scale(2)" fill="rgba(200, 50, 50, 0.2)"></use><use xlink:href="#SvgjsG3020" transform="translate(0, 460) scale(2)" fill="rgba(200, 50, 50, 0.2)"></use><use xlink:href="#SvgjsG3021" transform="translate(0, 552) scale(2)" fill="rgba(200, 50, 50, 0.2)"></use><use xlink:href="#SvgjsG3022" transform="translate(0, 644) scale(2)" fill="rgba(200, 50, 50, 0.2)"></use><use xlink:href="#SvgjsG3019" transform="translate(0, 736) scale(2)" fill="rgba(200, 50, 50, 0.2)"></use><use xlink:href="#SvgjsG3020" transform="translate(0, 828) scale(2)" fill="rgba(200, 50, 50, 0.2)"></use><use xlink:href="#SvgjsG3020" transform="translate(92, 0) scale(2)" fill="rgba(200, 50, 50, 0.2)"></use><use xlink:href="#SvgjsG3021" transform="translate(92, 92) scale(2)" fill="rgba(200, 50, 50, 0.2)"></use><use xlink:href="#SvgjsG3022" transform="translate(92, 184) scale(2)" fill="rgba(200, 50, 50, 0.2)"></use><use xlink:href="#SvgjsG3019" transform="translate(92, 276) scale(2)" fill="rgba(200, 50, 50, 0.2)"></use><use xlink:href="#SvgjsG3020" transform="translate(92, 368) scale(2)" fill="rgba(200, 50, 50, 0.2)"></use><use xlink:href="#SvgjsG3021" transform="translate(92, 460) scale(2)" fill="rgba(200, 50, 50, 0.2)"></use><use xlink:href="#SvgjsG3022" transform="translate(92, 552) scale(2)" fill="rgba(200, 50, 50, 0.2)"></use><use xlink:href="#SvgjsG3019" transform="translate(92, 644) scale(2)" fill="rgba(200, 50, 50, 0.2)"></use><use xlink:href="#SvgjsG3020" transform="translate(92, 736) scale(2)" fill="rgba(200, 50, 50, 0.2)"></use><use xlink:href="#SvgjsG3021" transform="translate(92, 828) scale(2)" fill="rgba(200, 50, 50, 0.2)"></use><use xlink:href="#SvgjsG3021" transform="translate(184, 0) scale(2)" fill="rgba(200, 50, 50, 0.2)"></use><use xlink:href="#SvgjsG3022" transform="translate(184, 92) scale(2)" fill="rgba(200, 50, 50, 0.2)"></use><use xlink:href="#SvgjsG3019" transform="translate(184, 184) scale(2)" fill="rgba(200, 50, 50, 0.2)"></use><use xlink:href="#SvgjsG3020" transform="translate(184, 276) scale(2)" fill="rgba(200, 50, 50, 0.2)"></use><use xlink:href="#SvgjsG3021" transform="translate(184, 368) scale(2)" fill="rgba(200, 50, 50, 0.2)"></use><use xlink:href="#SvgjsG3022" transform="translate(184, 460) scale(2)" fill="rgba(200, 50, 50, 0.2)"></use><use xlink:href="#SvgjsG3019" transform="translate(184, 552) scale(2)" fill="rgba(200, 50, 50, 0.2)"></use><use xlink:href="#SvgjsG3020" transform="translate(184, 644) scale(2)" fill="rgba(200, 50, 50, 0.2)"></use><use xlink:href="#SvgjsG3021" transform="translate(184, 736) scale(2)" fill="rgba(200, 50, 50, 0.2)"></use><use xlink:href="#SvgjsG3022" transform="translate(184, 828) scale(2)" fill="rgba(200, 50, 50, 0.2)"></use><use xlink:href="#SvgjsG3022" transform="translate(276, 0) scale(2)" fill="rgba(200, 50, 50, 0.2)"></use><use xlink:href="#SvgjsG3019" transform="translate(276, 92) scale(2)" fill="rgba(200, 50, 50, 0.2)"></use><use xlink:href="#SvgjsG3020" transform="translate(276, 184) scale(2)" fill="rgba(200, 50, 50, 0.2)"></use><use xlink:href="#SvgjsG3021" transform="translate(276, 276) scale(2)" fill="rgba(200, 50, 50, 0.2)"></use><use xlink:href="#SvgjsG3022" transform="translate(276, 368) scale(2)" fill="rgba(200, 50, 50, 0.2)"></use><use xlink:href="#SvgjsG3019" transform="translate(276, 460) scale(2)" fill="rgba(200, 50, 50, 0.2)"></use><use xlink:href="#SvgjsG3020" transform="translate(276, 552) scale(2)" fill="rgba(200, 50, 50, 0.2)"></use><use xlink:href="#SvgjsG3021" transform="translate(276, 644) scale(2)" fill="rgba(200, 50, 50, 0.2)"></use><use xlink:href="#SvgjsG3022" transform="translate(276, 736) scale(2)" fill="rgba(200, 50, 50, 0.2)"></use><use xlink:href="#SvgjsG3019" transform="translate(276, 828) scale(2)" fill="rgba(200, 50, 50, 0.2)"></use><use xlink:href="#SvgjsG3019" transform="translate(368, 0) scale(2)" fill="rgba(200, 50, 50, 0.2)"></use><use xlink:href="#SvgjsG3020" transform="translate(368, 92) scale(2)" fill="rgba(200, 50, 50, 0.2)"></use><use xlink:href="#SvgjsG3021" transform="translate(368, 184) scale(2)" fill="rgba(200, 50, 50, 0.2)"></use><use xlink:href="#SvgjsG3022" transform="translate(368, 276) scale(2)" fill="rgba(200, 50, 50, 0.2)"></use><use xlink:href="#SvgjsG3019" transform="translate(368, 368) scale(2)" fill="rgba(200, 50, 50, 0.2)"></use><use xlink:href="#SvgjsG3020" transform="translate(368, 460) scale(2)" fill="rgba(200, 50, 50, 0.2)"></use><use xlink:href="#SvgjsG3021" transform="translate(368, 552) scale(2)" fill="rgba(200, 50, 50, 0.2)"></use><use xlink:href="#SvgjsG3022" transform="translate(368, 644) scale(2)" fill="rgba(200, 50, 50, 0.2)"></use><use xlink:href="#SvgjsG3019" transform="translate(368, 736) scale(2)" fill="rgba(200, 50, 50, 0.2)"></use><use xlink:href="#SvgjsG3020" transform="translate(368, 828) scale(2)" fill="rgba(200, 50, 50, 0.2)"></use><use xlink:href="#SvgjsG3020" transform="translate(460, 0) scale(2)" fill="rgba(200, 50, 50, 0.2)"></use><use xlink:href="#SvgjsG3021" transform="translate(460, 92) scale(2)" fill="rgba(200, 50, 50, 0.2)"></use><use xlink:href="#SvgjsG3022" transform="translate(460, 184) scale(2)" fill="rgba(200, 50, 50, 0.2)"></use><use xlink:href="#SvgjsG3019" transform="translate(460, 276) scale(2)" fill="rgba(200, 50, 50, 0.2)"></use><use xlink:href="#SvgjsG3020" transform="translate(460, 368) scale(2)" fill="rgba(200, 50, 50, 0.2)"></use><use xlink:href="#SvgjsG3021" transform="translate(460, 460) scale(2)" fill="rgba(200, 50, 50, 0.2)"></use><use xlink:href="#SvgjsG3022" transform="translate(460, 552) scale(2)" fill="rgba(200, 50, 50, 0.2)"></use><use xlink:href="#SvgjsG3019" transform="translate(460, 644) scale(2)" fill="rgba(200, 50, 50, 0.2)"></use><use xlink:href="#SvgjsG3020" transform="translate(460, 736) scale(2)" fill="rgba(200, 50, 50, 0.2)"></use><use xlink:href="#SvgjsG3021" transform="translate(460, 828) scale(2)" fill="rgba(200, 50, 50, 0.2)"></use><use xlink:href="#SvgjsG3021" transform="translate(552, 0) scale(2)" fill="rgba(200, 50, 50, 0.2)"></use><use xlink:href="#SvgjsG3022" transform="translate(552, 92) scale(2)" fill="rgba(200, 50, 50, 0.2)"></use><use xlink:href="#SvgjsG3019" transform="translate(552, 184) scale(2)" fill="rgba(200, 50, 50, 0.2)"></use><use xlink:href="#SvgjsG3020" transform="translate(552, 276) scale(2)" fill="rgba(200, 50, 50, 0.2)"></use><use xlink:href="#SvgjsG3021" transform="translate(552, 368) scale(2)" fill="rgba(200, 50, 50, 0.2)"></use><use xlink:href="#SvgjsG3022" transform="translate(552, 460) scale(2)" fill="rgba(200, 50, 50, 0.2)"></use><use xlink:href="#SvgjsG3019" transform="translate(552, 552) scale(2)" fill="rgba(200, 50, 50, 0.2)"></use><use xlink:href="#SvgjsG3020" transform="translate(552, 644) scale(2)" fill="rgba(200, 50, 50, 0.2)"></use><use xlink:href="#SvgjsG3021" transform="translate(552, 736) scale(2)" fill="rgba(200, 50, 50, 0.2)"></use><use xlink:href="#SvgjsG3022" transform="translate(552, 828) scale(2)" fill="rgba(200, 50, 50, 0.2)"></use><use xlink:href="#SvgjsG3022" transform="translate(644, 0) scale(2)" fill="rgba(200, 50, 50, 0.2)"></use><use xlink:href="#SvgjsG3019" transform="translate(644, 92) scale(2)" fill="rgba(200, 50, 50, 0.2)"></use><use xlink:href="#SvgjsG3020" transform="translate(644, 184) scale(2)" fill="rgba(200, 50, 50, 0.2)"></use><use xlink:href="#SvgjsG3021" transform="translate(644, 276) scale(2)" fill="rgba(200, 50, 50, 0.2)"></use><use xlink:href="#SvgjsG3022" transform="translate(644, 368) scale(2)" fill="rgba(200, 50, 50, 0.2)"></use><use xlink:href="#SvgjsG3019" transform="translate(644, 460) scale(2)" fill="rgba(200, 50, 50, 0.2)"></use><use xlink:href="#SvgjsG3020" transform="translate(644, 552) scale(2)" fill="rgba(200, 50, 50, 0.2)"></use><use xlink:href="#SvgjsG3021" transform="translate(644, 644) scale(2)" fill="rgba(200, 50, 50, 0.2)"></use><use xlink:href="#SvgjsG3022" transform="translate(644, 736) scale(2)" fill="rgba(200, 50, 50, 0.2)"></use><use xlink:href="#SvgjsG3019" transform="translate(644, 828) scale(2)" fill="rgba(200, 50, 50, 0.2)"></use><use xlink:href="#SvgjsG3019" transform="translate(736, 0) scale(2)" fill="rgba(200, 50, 50, 0.2)"></use><use xlink:href="#SvgjsG3020" transform="translate(736, 92) scale(2)" fill="rgba(200, 50, 50, 0.2)"></use><use xlink:href="#SvgjsG3021" transform="translate(736, 184) scale(2)" fill="rgba(200, 50, 50, 0.2)"></use><use xlink:href="#SvgjsG3022" transform="translate(736, 276) scale(2)" fill="rgba(200, 50, 50, 0.2)"></use><use xlink:href="#SvgjsG3019" transform="translate(736, 368) scale(2)" fill="rgba(200, 50, 50, 0.2)"></use><use xlink:href="#SvgjsG3020" transform="translate(736, 460) scale(2)" fill="rgba(200, 50, 50, 0.2)"></use><use xlink:href="#SvgjsG3021" transform="translate(736, 552) scale(2)" fill="rgba(200, 50, 50, 0.2)"></use><use xlink:href="#SvgjsG3022" transform="translate(736, 644) scale(2)" fill="rgba(200, 50, 50, 0.2)"></use><use xlink:href="#SvgjsG3019" transform="translate(736, 736) scale(2)" fill="rgba(200, 50, 50, 0.2)"></use><use xlink:href="#SvgjsG3020" transform="translate(736, 828) scale(2)" fill="rgba(200, 50, 50, 0.2)"></use><use xlink:href="#SvgjsG3020" transform="translate(828, 0) scale(2)" fill="rgba(200, 50, 50, 0.2)"></use><use xlink:href="#SvgjsG3021" transform="translate(828, 92) scale(2)" fill="rgba(200, 50, 50, 0.2)"></use><use xlink:href="#SvgjsG3022" transform="translate(828, 184) scale(2)" fill="rgba(200, 50, 50, 0.2)"></use><use xlink:href="#SvgjsG3019" transform="translate(828, 276) scale(2)" fill="rgba(200, 50, 50, 0.2)"></use><use xlink:href="#SvgjsG3020" transform="translate(828, 368) scale(2)" fill="rgba(200, 50, 50, 0.2)"></use><use xlink:href="#SvgjsG3021" transform="translate(828, 460) scale(2)" fill="rgba(200, 50, 50, 0.2)"></use><use xlink:href="#SvgjsG3022" transform="translate(828, 552) scale(2)" fill="rgba(200, 50, 50, 0.2)"></use><use xlink:href="#SvgjsG3019" transform="translate(828, 644) scale(2)" fill="rgba(200, 50, 50, 0.2)"></use><use xlink:href="#SvgjsG3020" transform="translate(828, 736) scale(2)" fill="rgba(200, 50, 50, 0.2)"></use><use xlink:href="#SvgjsG3021" transform="translate(828, 828) scale(2)" fill="rgba(200, 50, 50, 0.2)"></use></g></defs></svg>