<svg xmlns="http://www.w3.org/2000/svg" version="1.1" xmlns:xlink="http://www.w3.org/1999/xlink" xmlns:svgjs="http://svgjs.dev/svgjs" width="1000" height="1200" preserveAspectRatio="none" viewBox="0 0 1000 1200"><g mask="url(&quot;#SvgjsMask1828&quot;)" fill="none"><rect width="1000" height="1200" x="0" y="0" fill="rgba(243, 243, 243, 0.61)"></rect><use xlink:href="#SvgjsG1832" transform="translate(0, 0)" fill="rgba(202, 202, 202, 0.7)"></use><use xlink:href="#SvgjsG1832" transform="translate(0, 920)" fill="rgba(202, 202, 202, 0.7)"></use><use xlink:href="#SvgjsG1832" transform="translate(920, 0)" fill="rgba(202, 202, 202, 0.7)"></use><use xlink:href="#SvgjsG1832" transform="translate(920, 920)" fill="rgba(202, 202, 202, 0.7)"></use></g><defs><mask id="SvgjsMask1828"><rect width="1000" height="1200" fill="#ffffff"></rect></mask><g id="SvgjsG1829"><path d="M13.44 16.44L-1.59 10.97 2.53-0.37l15.04 5.47-4.13 11.34z m-12.87-5.88l11.48 4.18L9.68 9.5l-0.98 0.46c-0.42 0.2-0.93 0.21-1.4 0.04l0 0c-0.47-0.17-0.85-0.52-1.04-0.94l-0.46-1-5.23 2.5zM2.93 1.81l-2.82 7.73L5.33 7.04 2.93 1.81zM10.69 9.03l2.36 5.22L15.83 6.6l-5.14 2.43zM3.93 1.32l3.34 7.27c0.07 0.16 0.22 0.29 0.41 0.36l0 0c0.19 0.07 0.39 0.07 0.54 0L15.49 5.53 3.93 1.32z"></path></g><g id="SvgjsG1830"><path d="M1.87 9.38L1.86 9.38l-0.86 2.35c0.67-0.17 4.18-0.93 4.61-0.96l4.16 1.51c1.43 0.52 3.02-0.22 3.54-1.65L15.28 5.22A2.77 2.77 0 0 0 13.62 1.69l-7.58-2.76c-1.43-0.52-3.02 0.21-3.55 1.65l-1.96 5.4a2.77 2.77 0 0 0 1.34 3.4z" fill-rule="evenodd"></path></g><g id="SvgjsG1831"><path d="M14.31 11.82c0.28 0.1 0.62-0.03 0.75-0.29 0 0 0.19-0.37 0.36-0.83s0.25-0.86 0.26-0.86c0.06-0.29-0.11-0.61-0.39-0.71l-1.44-0.52c-0.28-0.1-0.5-0.38-0.49-0.63s0.15-0.97 0.42-1.09l1.38-0.65c0.27-0.12 0.4-0.45 0.3-0.73l-0.75-1.62c-0.15-0.26-0.49-0.36-0.76-0.24l-1.38 0.64c-0.27 0.13-0.62 0.09-0.79-0.09s-0.58-0.8-0.48-1.07L11.82 1.69c0.1-0.28-0.03-0.62-0.29-0.75 0 0-0.37-0.19-0.83-0.36s-0.86-0.25-0.86-0.26c-0.29-0.06-0.61 0.11-0.71 0.39l-0.52 1.44c-0.1 0.28-0.38 0.5-0.63 0.49s-0.97-0.15-1.09-0.42l-0.65-1.38C6.12 0.57 5.79 0.44 5.51 0.54l-1.63 0.75c-0.26 0.15-0.36 0.49-0.23 0.76l0.64 1.38c0.12 0.27 0.09 0.62-0.09 0.79s-0.8 0.58-1.07 0.48L1.69 4.18c-0.28-0.1-0.62 0.03-0.75 0.29 0 0-0.19 0.37-0.36 0.83s-0.25 0.86-0.26 0.86c-0.06 0.29 0.11 0.61 0.39 0.71l1.44 0.52c0.28 0.1 0.5 0.38 0.49 0.63 0 0.24-0.15 0.97-0.42 1.1l-1.38 0.64C0.57 9.89 0.44 10.21 0.54 10.49l0.75 1.63c0.15 0.26 0.49 0.36 0.76 0.23l1.38-0.64c0.27-0.12 0.62-0.08 0.79 0.09s0.58 0.8 0.48 1.08l-0.52 1.43c-0.1 0.28 0.03 0.62 0.29 0.75 0 0 0.37 0.19 0.83 0.36s0.86 0.25 0.86 0.26c0.29 0.06 0.61-0.11 0.71-0.39l0.52-1.43c0.1-0.28 0.38-0.5 0.63-0.5 0.24 0 0.97 0.15 1.1 0.42l0.64 1.38c0.12 0.27 0.45 0.4 0.73 0.31l1.63-0.76c0.26-0.15 0.36-0.49 0.23-0.76l-0.64-1.38c-0.12-0.27-0.08-0.62 0.09-0.79 0.17-0.17 0.8-0.58 1.08-0.48l1.43 0.52zM7.01 10.72c-1.5-0.55-2.27-2.2-1.73-3.71 0.55-1.5 2.21-2.27 3.71-1.73S11.26 7.49 10.72 8.99 8.51 11.26 7.01 10.72z"></path></g><g id="SvgjsG1832"><use xlink:href="#SvgjsG1829" transform="translate(0, 0) scale(2)" fill="rgba(202, 202, 202, 0.7)"></use><use xlink:href="#SvgjsG1830" transform="translate(0, 92) scale(2)" fill="rgba(202, 202, 202, 0.7)"></use><use xlink:href="#SvgjsG1831" transform="translate(0, 184) scale(2)" fill="rgba(202, 202, 202, 0.7)"></use><use xlink:href="#SvgjsG1829" transform="translate(0, 276) scale(2)" fill="rgba(202, 202, 202, 0.7)"></use><use xlink:href="#SvgjsG1830" transform="translate(0, 368) scale(2)" fill="rgba(202, 202, 202, 0.7)"></use><use xlink:href="#SvgjsG1831" transform="translate(0, 460) scale(2)" fill="rgba(202, 202, 202, 0.7)"></use><use xlink:href="#SvgjsG1829" transform="translate(0, 552) scale(2)" fill="rgba(202, 202, 202, 0.7)"></use><use xlink:href="#SvgjsG1830" transform="translate(0, 644) scale(2)" fill="rgba(202, 202, 202, 0.7)"></use><use xlink:href="#SvgjsG1831" transform="translate(0, 736) scale(2)" fill="rgba(202, 202, 202, 0.7)"></use><use xlink:href="#SvgjsG1829" transform="translate(0, 828) scale(2)" fill="rgba(202, 202, 202, 0.7)"></use><use xlink:href="#SvgjsG1830" transform="translate(92, 0) scale(2)" fill="rgba(202, 202, 202, 0.7)"></use><use xlink:href="#SvgjsG1831" transform="translate(92, 92) scale(2)" fill="rgba(202, 202, 202, 0.7)"></use><use xlink:href="#SvgjsG1829" transform="translate(92, 184) scale(2)" fill="rgba(202, 202, 202, 0.7)"></use><use xlink:href="#SvgjsG1830" transform="translate(92, 276) scale(2)" fill="rgba(202, 202, 202, 0.7)"></use><use xlink:href="#SvgjsG1831" transform="translate(92, 368) scale(2)" fill="rgba(202, 202, 202, 0.7)"></use><use xlink:href="#SvgjsG1829" transform="translate(92, 460) scale(2)" fill="rgba(202, 202, 202, 0.7)"></use><use xlink:href="#SvgjsG1830" transform="translate(92, 552) scale(2)" fill="rgba(202, 202, 202, 0.7)"></use><use xlink:href="#SvgjsG1831" transform="translate(92, 644) scale(2)" fill="rgba(202, 202, 202, 0.7)"></use><use xlink:href="#SvgjsG1829" transform="translate(92, 736) scale(2)" fill="rgba(202, 202, 202, 0.7)"></use><use xlink:href="#SvgjsG1830" transform="translate(92, 828) scale(2)" fill="rgba(202, 202, 202, 0.7)"></use><use xlink:href="#SvgjsG1831" transform="translate(184, 0) scale(2)" fill="rgba(202, 202, 202, 0.7)"></use><use xlink:href="#SvgjsG1829" transform="translate(184, 92) scale(2)" fill="rgba(202, 202, 202, 0.7)"></use><use xlink:href="#SvgjsG1830" transform="translate(184, 184) scale(2)" fill="rgba(202, 202, 202, 0.7)"></use><use xlink:href="#SvgjsG1831" transform="translate(184, 276) scale(2)" fill="rgba(202, 202, 202, 0.7)"></use><use xlink:href="#SvgjsG1829" transform="translate(184, 368) scale(2)" fill="rgba(202, 202, 202, 0.7)"></use><use xlink:href="#SvgjsG1830" transform="translate(184, 460) scale(2)" fill="rgba(202, 202, 202, 0.7)"></use><use xlink:href="#SvgjsG1831" transform="translate(184, 552) scale(2)" fill="rgba(202, 202, 202, 0.7)"></use><use xlink:href="#SvgjsG1829" transform="translate(184, 644) scale(2)" fill="rgba(202, 202, 202, 0.7)"></use><use xlink:href="#SvgjsG1830" transform="translate(184, 736) scale(2)" fill="rgba(202, 202, 202, 0.7)"></use><use xlink:href="#SvgjsG1831" transform="translate(184, 828) scale(2)" fill="rgba(202, 202, 202, 0.7)"></use><use xlink:href="#SvgjsG1829" transform="translate(276, 0) scale(2)" fill="rgba(202, 202, 202, 0.7)"></use><use xlink:href="#SvgjsG1830" transform="translate(276, 92) scale(2)" fill="rgba(202, 202, 202, 0.7)"></use><use xlink:href="#SvgjsG1831" transform="translate(276, 184) scale(2)" fill="rgba(202, 202, 202, 0.7)"></use><use xlink:href="#SvgjsG1829" transform="translate(276, 276) scale(2)" fill="rgba(202, 202, 202, 0.7)"></use><use xlink:href="#SvgjsG1830" transform="translate(276, 368) scale(2)" fill="rgba(202, 202, 202, 0.7)"></use><use xlink:href="#SvgjsG1831" transform="translate(276, 460) scale(2)" fill="rgba(202, 202, 202, 0.7)"></use><use xlink:href="#SvgjsG1829" transform="translate(276, 552) scale(2)" fill="rgba(202, 202, 202, 0.7)"></use><use xlink:href="#SvgjsG1830" transform="translate(276, 644) scale(2)" fill="rgba(202, 202, 202, 0.7)"></use><use xlink:href="#SvgjsG1831" transform="translate(276, 736) scale(2)" fill="rgba(202, 202, 202, 0.7)"></use><use xlink:href="#SvgjsG1829" transform="translate(276, 828) scale(2)" fill="rgba(202, 202, 202, 0.7)"></use><use xlink:href="#SvgjsG1830" transform="translate(368, 0) scale(2)" fill="rgba(202, 202, 202, 0.7)"></use><use xlink:href="#SvgjsG1831" transform="translate(368, 92) scale(2)" fill="rgba(202, 202, 202, 0.7)"></use><use xlink:href="#SvgjsG1829" transform="translate(368, 184) scale(2)" fill="rgba(202, 202, 202, 0.7)"></use><use xlink:href="#SvgjsG1830" transform="translate(368, 276) scale(2)" fill="rgba(202, 202, 202, 0.7)"></use><use xlink:href="#SvgjsG1831" transform="translate(368, 368) scale(2)" fill="rgba(202, 202, 202, 0.7)"></use><use xlink:href="#SvgjsG1829" transform="translate(368, 460) scale(2)" fill="rgba(202, 202, 202, 0.7)"></use><use xlink:href="#SvgjsG1830" transform="translate(368, 552) scale(2)" fill="rgba(202, 202, 202, 0.7)"></use><use xlink:href="#SvgjsG1831" transform="translate(368, 644) scale(2)" fill="rgba(202, 202, 202, 0.7)"></use><use xlink:href="#SvgjsG1829" transform="translate(368, 736) scale(2)" fill="rgba(202, 202, 202, 0.7)"></use><use xlink:href="#SvgjsG1830" transform="translate(368, 828) scale(2)" fill="rgba(202, 202, 202, 0.7)"></use><use xlink:href="#SvgjsG1831" transform="translate(460, 0) scale(2)" fill="rgba(202, 202, 202, 0.7)"></use><use xlink:href="#SvgjsG1829" transform="translate(460, 92) scale(2)" fill="rgba(202, 202, 202, 0.7)"></use><use xlink:href="#SvgjsG1830" transform="translate(460, 184) scale(2)" fill="rgba(202, 202, 202, 0.7)"></use><use xlink:href="#SvgjsG1831" transform="translate(460, 276) scale(2)" fill="rgba(202, 202, 202, 0.7)"></use><use xlink:href="#SvgjsG1829" transform="translate(460, 368) scale(2)" fill="rgba(202, 202, 202, 0.7)"></use><use xlink:href="#SvgjsG1830" transform="translate(460, 460) scale(2)" fill="rgba(202, 202, 202, 0.7)"></use><use xlink:href="#SvgjsG1831" transform="translate(460, 552) scale(2)" fill="rgba(202, 202, 202, 0.7)"></use><use xlink:href="#SvgjsG1829" transform="translate(460, 644) scale(2)" fill="rgba(202, 202, 202, 0.7)"></use><use xlink:href="#SvgjsG1830" transform="translate(460, 736) scale(2)" fill="rgba(202, 202, 202, 0.7)"></use><use xlink:href="#SvgjsG1831" transform="translate(460, 828) scale(2)" fill="rgba(202, 202, 202, 0.7)"></use><use xlink:href="#SvgjsG1829" transform="translate(552, 0) scale(2)" fill="rgba(202, 202, 202, 0.7)"></use><use xlink:href="#SvgjsG1830" transform="translate(552, 92) scale(2)" fill="rgba(202, 202, 202, 0.7)"></use><use xlink:href="#SvgjsG1831" transform="translate(552, 184) scale(2)" fill="rgba(202, 202, 202, 0.7)"></use><use xlink:href="#SvgjsG1829" transform="translate(552, 276) scale(2)" fill="rgba(202, 202, 202, 0.7)"></use><use xlink:href="#SvgjsG1830" transform="translate(552, 368) scale(2)" fill="rgba(202, 202, 202, 0.7)"></use><use xlink:href="#SvgjsG1831" transform="translate(552, 460) scale(2)" fill="rgba(202, 202, 202, 0.7)"></use><use xlink:href="#SvgjsG1829" transform="translate(552, 552) scale(2)" fill="rgba(202, 202, 202, 0.7)"></use><use xlink:href="#SvgjsG1830" transform="translate(552, 644) scale(2)" fill="rgba(202, 202, 202, 0.7)"></use><use xlink:href="#SvgjsG1831" transform="translate(552, 736) scale(2)" fill="rgba(202, 202, 202, 0.7)"></use><use xlink:href="#SvgjsG1829" transform="translate(552, 828) scale(2)" fill="rgba(202, 202, 202, 0.7)"></use><use xlink:href="#SvgjsG1830" transform="translate(644, 0) scale(2)" fill="rgba(202, 202, 202, 0.7)"></use><use xlink:href="#SvgjsG1831" transform="translate(644, 92) scale(2)" fill="rgba(202, 202, 202, 0.7)"></use><use xlink:href="#SvgjsG1829" transform="translate(644, 184) scale(2)" fill="rgba(202, 202, 202, 0.7)"></use><use xlink:href="#SvgjsG1830" transform="translate(644, 276) scale(2)" fill="rgba(202, 202, 202, 0.7)"></use><use xlink:href="#SvgjsG1831" transform="translate(644, 368) scale(2)" fill="rgba(202, 202, 202, 0.7)"></use><use xlink:href="#SvgjsG1829" transform="translate(644, 460) scale(2)" fill="rgba(202, 202, 202, 0.7)"></use><use xlink:href="#SvgjsG1830" transform="translate(644, 552) scale(2)" fill="rgba(202, 202, 202, 0.7)"></use><use xlink:href="#SvgjsG1831" transform="translate(644, 644) scale(2)" fill="rgba(202, 202, 202, 0.7)"></use><use xlink:href="#SvgjsG1829" transform="translate(644, 736) scale(2)" fill="rgba(202, 202, 202, 0.7)"></use><use xlink:href="#SvgjsG1830" transform="translate(644, 828) scale(2)" fill="rgba(202, 202, 202, 0.7)"></use><use xlink:href="#SvgjsG1831" transform="translate(736, 0) scale(2)" fill="rgba(202, 202, 202, 0.7)"></use><use xlink:href="#SvgjsG1829" transform="translate(736, 92) scale(2)" fill="rgba(202, 202, 202, 0.7)"></use><use xlink:href="#SvgjsG1830" transform="translate(736, 184) scale(2)" fill="rgba(202, 202, 202, 0.7)"></use><use xlink:href="#SvgjsG1831" transform="translate(736, 276) scale(2)" fill="rgba(202, 202, 202, 0.7)"></use><use xlink:href="#SvgjsG1829" transform="translate(736, 368) scale(2)" fill="rgba(202, 202, 202, 0.7)"></use><use xlink:href="#SvgjsG1830" transform="translate(736, 460) scale(2)" fill="rgba(202, 202, 202, 0.7)"></use><use xlink:href="#SvgjsG1831" transform="translate(736, 552) scale(2)" fill="rgba(202, 202, 202, 0.7)"></use><use xlink:href="#SvgjsG1829" transform="translate(736, 644) scale(2)" fill="rgba(202, 202, 202, 0.7)"></use><use xlink:href="#SvgjsG1830" transform="translate(736, 736) scale(2)" fill="rgba(202, 202, 202, 0.7)"></use><use xlink:href="#SvgjsG1831" transform="translate(736, 828) scale(2)" fill="rgba(202, 202, 202, 0.7)"></use><use xlink:href="#SvgjsG1829" transform="translate(828, 0) scale(2)" fill="rgba(202, 202, 202, 0.7)"></use><use xlink:href="#SvgjsG1830" transform="translate(828, 92) scale(2)" fill="rgba(202, 202, 202, 0.7)"></use><use xlink:href="#SvgjsG1831" transform="translate(828, 184) scale(2)" fill="rgba(202, 202, 202, 0.7)"></use><use xlink:href="#SvgjsG1829" transform="translate(828, 276) scale(2)" fill="rgba(202, 202, 202, 0.7)"></use><use xlink:href="#SvgjsG1830" transform="translate(828, 368) scale(2)" fill="rgba(202, 202, 202, 0.7)"></use><use xlink:href="#SvgjsG1831" transform="translate(828, 460) scale(2)" fill="rgba(202, 202, 202, 0.7)"></use><use xlink:href="#SvgjsG1829" transform="translate(828, 552) scale(2)" fill="rgba(202, 202, 202, 0.7)"></use><use xlink:href="#SvgjsG1830" transform="translate(828, 644) scale(2)" fill="rgba(202, 202, 202, 0.7)"></use><use xlink:href="#SvgjsG1831" transform="translate(828, 736) scale(2)" fill="rgba(202, 202, 202, 0.7)"></use><use xlink:href="#SvgjsG1829" transform="translate(828, 828) scale(2)" fill="rgba(202, 202, 202, 0.7)"></use></g></defs></svg>